<?xml version="1.0" encoding="UTF-8" standalone="no"?>
<!DOCTYPE svg PUBLIC "-//W3C//DTD SVG 1.1//EN" "http://www.w3.org/Graphics/SVG/1.1/DTD/svg11.dtd">
<svg version="1.1" xmlns="http://www.w3.org/2000/svg" xmlns:xlink="http://www.w3.org/1999/xlink" preserveAspectRatio="xMidYMid meet" viewBox="2.2273841349999017 -1 644 131.39046315467186" width="200" height="39.81"><defs><path d="M323.41 2.2C358.73 2.3 387.33 30.19 387.23 64.45C387.13 98.71 358.37 126.46 323.05 126.36C287.73 126.25 259.13 98.36 259.23 64.1C259.33 29.84 288.09 2.11 323.41 2.2Z" id="a1HTqR88M"></path><path d="M323.41 2.2C358.73 2.3 387.33 30.19 387.23 64.45C387.13 98.71 358.37 126.46 323.05 126.36C287.73 126.25 259.13 98.36 259.23 64.1C259.33 29.84 288.09 2.11 323.41 2.2Z" id="eFXn8cypv"></path><path d="M579.41 2.2C614.73 2.3 643.33 30.19 643.23 64.45C643.13 98.71 614.37 126.46 579.05 126.36C543.73 126.25 515.13 98.36 515.23 64.1C515.33 29.84 544.09 2.11 579.41 2.2Z" id="a1PpZffzcD"></path><path d="M579.41 2.2C614.73 2.3 643.33 30.19 643.23 64.45C643.13 98.71 614.37 126.46 579.05 126.36C543.73 126.25 515.13 98.36 515.23 64.1C515.33 29.84 544.09 2.11 579.41 2.2Z" id="bOAo50QMx"></path><path d="M451.41 2.2C486.73 2.3 515.33 30.19 515.23 64.45C515.13 98.71 486.37 126.46 451.05 126.36C415.73 126.25 387.13 98.36 387.23 64.1C387.33 29.84 416.09 2.11 451.41 2.2Z" id="a4dLCcjwCW"></path><path d="M451.41 2.2C486.73 2.3 515.33 30.19 515.23 64.45C515.13 98.71 486.37 126.46 451.05 126.36C415.73 126.25 387.13 98.36 387.23 64.1C387.33 29.84 416.09 2.11 451.41 2.2Z" id="bhCjodovF"></path><path d="M323.41 2.2C358.73 2.3 387.33 30.19 387.23 64.45C387.13 98.71 358.37 126.46 323.05 126.36C287.73 126.25 259.13 98.36 259.23 64.1C259.33 29.84 288.09 2.11 323.41 2.2Z" id="d4qytpwGxR"></path><path d="M323.41 2.2C358.73 2.3 387.33 30.19 387.23 64.45C387.13 98.71 358.37 126.46 323.05 126.36C287.73 126.25 259.13 98.36 259.23 64.1C259.33 29.84 288.09 2.11 323.41 2.2Z" id="cXFx7qL0"></path><path d="M451.41 2.2C486.73 2.3 515.33 30.19 515.23 64.45C515.13 98.71 486.37 126.46 451.05 126.36C415.73 126.25 387.13 98.36 387.23 64.1C387.33 29.84 416.09 2.11 451.41 2.2Z" id="g23YFJBzJQ"></path><path d="M451.41 2.2C486.73 2.3 515.33 30.19 515.23 64.45C515.13 98.71 486.37 126.46 451.05 126.36C415.73 126.25 387.13 98.36 387.23 64.1C387.33 29.84 416.09 2.11 451.41 2.2Z" id="cimu9V950"></path><path d="M195.23 2.2C230.55 2.2 259.23 30.02 259.23 64.28C259.23 98.54 230.55 126.37 195.23 126.37C159.91 126.37 131.23 98.54 131.23 64.28C131.23 30.02 159.91 2.2 195.23 2.2Z" id="a7OS9gEXH"></path><path d="M195.23 2.2C230.55 2.2 259.23 30.02 259.23 64.28C259.23 98.54 230.55 126.37 195.23 126.37C159.91 126.37 131.23 98.54 131.23 64.28C131.23 30.02 159.91 2.2 195.23 2.2Z" id="dcbRPd22X"></path><path d="M67.23 0C102.55 0 131.23 27.82 131.23 62.08C131.23 96.34 102.55 124.17 67.23 124.17C31.91 124.17 3.23 96.34 3.23 62.08C3.23 27.82 31.91 0 67.23 0Z" id="g7E7bErs3G"></path><path d="M50.11 89.96C60.76 89.96 69.4 98.34 69.4 108.67C69.4 119 60.76 127.39 50.11 127.39C39.46 127.39 30.81 119 30.81 108.67C30.81 98.34 39.46 89.96 50.11 89.96Z" id="e1zbkMnO87"></path><path d="M72.63 0.42L72.63 124.15L72.47 124.16L69.86 124.32L67.23 124.37L64.59 124.32L61.98 124.16L59.4 123.91L56.85 123.56L54.34 123.11L51.86 122.56L49.41 121.93L47.01 121.2L44.65 120.39L42.33 119.49L40.05 118.5L37.83 117.43L35.65 116.29L33.53 115.06L31.46 113.76L29.44 112.38L27.48 110.93L25.59 109.41L23.75 107.83L21.98 106.17L20.28 104.45L18.64 102.67L17.08 100.83L15.58 98.94L14.16 96.98L12.82 94.97L11.56 92.91L10.38 90.8L9.28 88.64L8.26 86.43L7.33 84.19L6.49 81.89L5.74 79.56L5.09 77.19L4.53 74.78L4.07 72.34L3.7 69.87L3.44 67.37L3.28 64.84L3.23 62.28L3.28 59.72L3.44 57.19L3.7 54.69L4.07 52.22L4.53 49.78L5.09 47.37L5.74 45L6.49 42.67L7.33 40.38L8.26 38.13L9.28 35.92L10.38 33.76L11.56 31.65L12.82 29.59L14.16 27.58L15.58 25.63L17.08 23.73L18.64 21.89L20.28 20.11L21.98 18.39L23.75 16.74L25.59 15.15L27.48 13.63L29.44 12.19L31.46 10.81L33.53 9.51L35.65 8.28L37.83 7.13L40.05 6.07L42.33 5.08L44.65 4.18L47.01 3.37L49.41 2.64L51.86 2.01L54.34 1.46L56.85 1.01L59.4 0.66L61.98 0.41L64.59 0.25L67.23 0.2L69.86 0.25L72.47 0.41L72.47 0.41L72.63 0.42Z" id="a2ltfCWhKl"></path></defs><g><g><use xlink:href="#a1HTqR88M" opacity="1" fill="#b1b1b1" fill-opacity="1"></use><g><use xlink:href="#a1HTqR88M" opacity="1" fill-opacity="0" stroke="#000000" stroke-width="1" stroke-opacity="0"></use></g></g><g><use xlink:href="#eFXn8cypv" opacity="1" fill="#000000" fill-opacity="0"></use><g><use xlink:href="#eFXn8cypv" opacity="1" fill-opacity="0" stroke="#000000" stroke-width="1" stroke-opacity="0"></use></g></g><g><use xlink:href="#a1PpZffzcD" opacity="1" fill="#b1b1b1" fill-opacity="1"></use><g><use xlink:href="#a1PpZffzcD" opacity="1" fill-opacity="0" stroke="#000000" stroke-width="1" stroke-opacity="0"></use></g></g><g><use xlink:href="#bOAo50QMx" opacity="1" fill="#000000" fill-opacity="0"></use><g><use xlink:href="#bOAo50QMx" opacity="1" fill-opacity="0" stroke="#000000" stroke-width="1" stroke-opacity="0"></use></g></g><g><use xlink:href="#a4dLCcjwCW" opacity="1" fill="#000000" fill-opacity="0"></use><g><use xlink:href="#a4dLCcjwCW" opacity="1" fill-opacity="0" stroke="#000000" stroke-width="1" stroke-opacity="0"></use></g></g><g><use xlink:href="#bhCjodovF" opacity="1" fill="#000000" fill-opacity="0"></use><g><use xlink:href="#bhCjodovF" opacity="1" fill-opacity="0" stroke="#000000" stroke-width="1" stroke-opacity="0"></use></g></g><g><use xlink:href="#d4qytpwGxR" opacity="1" fill="#000000" fill-opacity="0"></use><g><use xlink:href="#d4qytpwGxR" opacity="1" fill-opacity="0" stroke="#000000" stroke-width="1" stroke-opacity="0"></use></g></g><g><use xlink:href="#cXFx7qL0" opacity="1" fill="#000000" fill-opacity="0"></use><g><use xlink:href="#cXFx7qL0" opacity="1" fill-opacity="0" stroke="#000000" stroke-width="1" stroke-opacity="0"></use></g></g><g><use xlink:href="#g23YFJBzJQ" opacity="1" fill="#b1b1b1" fill-opacity="1"></use><g><use xlink:href="#g23YFJBzJQ" opacity="1" fill-opacity="0" stroke="#000000" stroke-width="1" stroke-opacity="0"></use></g></g><g><use xlink:href="#cimu9V950" opacity="1" fill="#000000" fill-opacity="0"></use><g><use xlink:href="#cimu9V950" opacity="1" fill-opacity="0" stroke="#000000" stroke-width="1" stroke-opacity="0"></use></g></g><g><use xlink:href="#a7OS9gEXH" opacity="1" fill="#b1b1b1" fill-opacity="1"></use><g><use xlink:href="#a7OS9gEXH" opacity="1" fill-opacity="0" stroke="#000000" stroke-width="1" stroke-opacity="0"></use></g></g><g><use xlink:href="#dcbRPd22X" opacity="1" fill="#b1b1b1" fill-opacity="1"></use><g><use xlink:href="#dcbRPd22X" opacity="1" fill-opacity="0" stroke="#000000" stroke-width="1" stroke-opacity="0"></use></g></g><g><use xlink:href="#g7E7bErs3G" opacity="1" fill="#b1b1b1" fill-opacity="1"></use><g><use xlink:href="#g7E7bErs3G" opacity="1" fill-opacity="0" stroke="#000000" stroke-width="1" stroke-opacity="0"></use></g></g><g><use xlink:href="#e1zbkMnO87" opacity="1" fill="#000000" fill-opacity="0"></use><g><use xlink:href="#e1zbkMnO87" opacity="1" fill-opacity="0" stroke="#000000" stroke-width="1" stroke-opacity="0"></use></g></g><g><use xlink:href="#a2ltfCWhKl" opacity="1" fill="#f8ff73" fill-opacity="1"></use><g><use xlink:href="#a2ltfCWhKl" opacity="1" fill-opacity="0" stroke="#000000" stroke-width="1" stroke-opacity="0"></use></g></g></g></svg>