<?xml version="1.0" encoding="UTF-8" standalone="no"?>
<!DOCTYPE svg PUBLIC "-//W3C//DTD SVG 1.1//EN" "http://www.w3.org/Graphics/SVG/1.1/DTD/svg11.dtd">
<svg version="1.1" xmlns="http://www.w3.org/2000/svg" xmlns:xlink="http://www.w3.org/1999/xlink" preserveAspectRatio="xMidYMid meet" viewBox="-1 -1 643.9999999999999 129.36510900422775" width="200" height="39.18"><defs><path d="M256 63.1C256.1 28.84 284.86 1.11 320.18 1.2C355.5 1.3 384.1 29.19 384 63.45C383.9 97.71 355.14 125.46 319.82 125.36C284.5 125.25 255.9 97.36 256 63.1Z" id="a3WYbdZPLl"></path><path d="M512 63.1C512.1 28.84 540.86 1.11 576.18 1.2C611.5 1.3 640.1 29.19 640 63.45C639.9 97.71 611.14 125.46 575.82 125.36C540.5 125.25 511.9 97.36 512 63.1Z" id="bo8NgPkwm"></path><path d="M384 63.1C384.1 28.84 412.86 1.11 448.18 1.2C483.5 1.3 512.1 29.19 512 63.45C511.9 97.71 483.14 125.46 447.82 125.36C412.5 125.25 383.9 97.36 384 63.1Z" id="agLIKfqgx"></path><path d="M256 63.1C256.1 28.84 284.86 1.11 320.18 1.2C355.5 1.3 384.1 29.19 384 63.45C383.9 97.71 355.14 125.46 319.82 125.36C284.5 125.25 255.9 97.36 256 63.1Z" id="dOnwa47IQ"></path><path d="M384 63.1C384.1 28.84 412.86 1.11 448.18 1.2C483.5 1.3 512.1 29.19 512 63.45C511.9 97.71 483.14 125.46 447.82 125.36C412.5 125.25 383.9 97.36 384 63.1Z" id="bd3SWwfte"></path><path d="M128 63.28C128 29.02 156.68 1.2 192 1.2C227.32 1.2 256 29.02 256 63.28C256 97.54 227.32 125.37 192 125.37C156.68 125.37 128 97.54 128 63.28Z" id="a6vQywM7Qp"></path><path d="M0 62.08C0 27.82 28.68 0 64 0C99.32 0 128 27.82 128 62.08C128 96.34 99.32 124.17 64 124.17C28.68 124.17 0 96.34 0 62.08Z" id="akw8tGFGl"></path></defs><g><g><use xlink:href="#a3WYbdZPLl" opacity="1" fill="#b1b1b1" fill-opacity="1"></use><g><use xlink:href="#a3WYbdZPLl" opacity="1" fill-opacity="0" stroke="#000000" stroke-width="1" stroke-opacity="0"></use></g></g><g><use xlink:href="#bo8NgPkwm" opacity="1" fill="#b1b1b1" fill-opacity="1"></use><g><use xlink:href="#bo8NgPkwm" opacity="1" fill-opacity="0" stroke="#000000" stroke-width="1" stroke-opacity="0"></use></g></g><g><use xlink:href="#agLIKfqgx" opacity="1" fill="#000000" fill-opacity="0"></use><g><use xlink:href="#agLIKfqgx" opacity="1" fill-opacity="0" stroke="#000000" stroke-width="1" stroke-opacity="0"></use></g></g><g><use xlink:href="#dOnwa47IQ" opacity="1" fill="#000000" fill-opacity="0"></use><g><use xlink:href="#dOnwa47IQ" opacity="1" fill-opacity="0" stroke="#000000" stroke-width="1" stroke-opacity="0"></use></g></g><g><use xlink:href="#bd3SWwfte" opacity="1" fill="#b1b1b1" fill-opacity="1"></use><g><use xlink:href="#bd3SWwfte" opacity="1" fill-opacity="0" stroke="#000000" stroke-width="1" stroke-opacity="0"></use></g></g><g><use xlink:href="#a6vQywM7Qp" opacity="1" fill="#b1b1b1" fill-opacity="1"></use><g><use xlink:href="#a6vQywM7Qp" opacity="1" fill-opacity="0" stroke="#000000" stroke-width="1" stroke-opacity="0"></use></g></g><g><use xlink:href="#akw8tGFGl" opacity="1" fill="#f8ff73" fill-opacity="1"></use><g><use xlink:href="#akw8tGFGl" opacity="1" fill-opacity="0" stroke="#000000" stroke-width="1" stroke-opacity="0"></use></g></g></g></svg>