<?xml version="1.0" encoding="UTF-8" standalone="no"?>
<!DOCTYPE svg PUBLIC "-//W3C//DTD SVG 1.1//EN" "http://www.w3.org/Graphics/SVG/1.1/DTD/svg11.dtd">
<svg version="1.1" xmlns="http://www.w3.org/2000/svg" xmlns:xlink="http://www.w3.org/1999/xlink" preserveAspectRatio="xMidYMid meet" viewBox="2.227384134999909 -1 644 130.39046315467186" width="200" height="39.5"><defs><path d="M323.41 2.2C358.73 2.3 387.33 30.19 387.23 64.45C387.13 98.71 358.37 126.46 323.05 126.36C287.73 126.25 259.13 98.36 259.23 64.1C259.33 29.84 288.09 2.11 323.41 2.2Z" id="eG0StPVHl"></path><path d="M323.41 2.2C358.73 2.3 387.33 30.19 387.23 64.45C387.13 98.71 358.37 126.46 323.05 126.36C287.73 126.25 259.13 98.36 259.23 64.1C259.33 29.84 288.09 2.11 323.41 2.2Z" id="a6fFyKdvf"></path><path d="M579.41 2.2C614.73 2.3 643.33 30.19 643.23 64.45C643.13 98.71 614.37 126.46 579.05 126.36C543.73 126.25 515.13 98.36 515.23 64.1C515.33 29.84 544.09 2.11 579.41 2.2Z" id="c8HplEn8L"></path><path d="M579.41 2.2C614.73 2.3 643.33 30.19 643.23 64.45C643.13 98.71 614.37 126.46 579.05 126.36C543.73 126.25 515.13 98.36 515.23 64.1C515.33 29.84 544.09 2.11 579.41 2.2Z" id="a2sYmkyNIn"></path><path d="M451.41 2.2C486.73 2.3 515.33 30.19 515.23 64.45C515.13 98.71 486.37 126.46 451.05 126.36C415.73 126.25 387.13 98.36 387.23 64.1C387.33 29.84 416.09 2.11 451.41 2.2Z" id="d1OpfdJcFJ"></path><path d="M451.41 2.2C486.73 2.3 515.33 30.19 515.23 64.45C515.13 98.71 486.37 126.46 451.05 126.36C415.73 126.25 387.13 98.36 387.23 64.1C387.33 29.84 416.09 2.11 451.41 2.2Z" id="a2o9NfQ1A1"></path><path d="M323.41 2.2C358.73 2.3 387.33 30.19 387.23 64.45C387.13 98.71 358.37 126.46 323.05 126.36C287.73 126.25 259.13 98.36 259.23 64.1C259.33 29.84 288.09 2.11 323.41 2.2Z" id="a107xcQHPC"></path><path d="M323.41 2.2C358.73 2.3 387.33 30.19 387.23 64.45C387.13 98.71 358.37 126.46 323.05 126.36C287.73 126.25 259.13 98.36 259.23 64.1C259.33 29.84 288.09 2.11 323.41 2.2Z" id="c6gLPheXY"></path><path d="M451.41 2.2C486.73 2.3 515.33 30.19 515.23 64.45C515.13 98.71 486.37 126.46 451.05 126.36C415.73 126.25 387.13 98.36 387.23 64.1C387.33 29.84 416.09 2.11 451.41 2.2Z" id="b2bw5mpO6V"></path><path d="M451.41 2.2C486.73 2.3 515.33 30.19 515.23 64.45C515.13 98.71 486.37 126.46 451.05 126.36C415.73 126.25 387.13 98.36 387.23 64.1C387.33 29.84 416.09 2.11 451.41 2.2Z" id="aexWsrFVL"></path><path d="M195.23 2.2C230.55 2.2 259.23 30.02 259.23 64.28C259.23 98.54 230.55 126.37 195.23 126.37C159.91 126.37 131.23 98.54 131.23 64.28C131.23 30.02 159.91 2.2 195.23 2.2Z" id="a1Nw7QfPO7"></path><path d="M195.23 2.2C230.55 2.2 259.23 30.02 259.23 64.28C259.23 98.54 230.55 126.37 195.23 126.37C159.91 126.37 131.23 98.54 131.23 64.28C131.23 30.02 159.91 2.2 195.23 2.2Z" id="b2a4zBhv1Q"></path><path d="M67.23 0C102.55 0 131.23 27.82 131.23 62.08C131.23 96.34 102.55 124.17 67.23 124.17C31.91 124.17 3.23 96.34 3.23 62.08C3.23 27.82 31.91 0 67.23 0Z" id="b275ggGLQ9"></path><path d="M200.63 2.44L200.63 126.17L200.47 126.18L197.86 126.34L195.23 126.39L192.59 126.34L189.98 126.18L187.4 125.93L184.85 125.58L182.34 125.13L179.86 124.58L177.41 123.95L175.01 123.22L172.65 122.41L170.33 121.51L168.05 120.52L165.83 119.45L163.65 118.31L161.53 117.08L159.46 115.78L157.44 114.4L155.48 112.95L153.59 111.43L151.75 109.85L149.98 108.19L148.28 106.48L146.64 104.7L145.08 102.85L143.58 100.96L142.16 99L140.82 96.99L139.56 94.93L138.38 92.82L137.28 90.66L136.26 88.46L135.33 86.21L134.49 83.91L133.74 81.58L133.09 79.21L132.53 76.8L132.07 74.36L131.7 71.89L131.44 69.39L131.28 66.86L131.23 64.3L131.28 61.74L131.44 59.21L131.7 56.71L132.07 54.24L132.53 51.8L133.09 49.39L133.74 47.02L134.49 44.69L135.33 42.4L136.26 40.15L137.28 37.94L138.38 35.78L139.56 33.67L140.82 31.61L142.16 29.6L143.58 27.65L145.08 25.75L146.64 23.91L148.28 22.13L149.98 20.41L151.75 18.76L153.59 17.17L155.48 15.65L157.44 14.21L159.46 12.83L161.53 11.53L163.65 10.3L165.83 9.15L168.05 8.09L170.33 7.1L172.65 6.2L175.01 5.39L177.41 4.66L179.86 4.03L182.34 3.48L184.85 3.03L187.4 2.68L189.98 2.43L192.59 2.27L195.23 2.22L197.86 2.27L200.47 2.43L200.47 2.43L200.63 2.44Z" id="a30vFzmINZ"></path></defs><g><g><use xlink:href="#eG0StPVHl" opacity="1" fill="#b1b1b1" fill-opacity="1"></use><g><use xlink:href="#eG0StPVHl" opacity="1" fill-opacity="0" stroke="#000000" stroke-width="1" stroke-opacity="0"></use></g></g><g><use xlink:href="#a6fFyKdvf" opacity="1" fill="#000000" fill-opacity="0"></use><g><use xlink:href="#a6fFyKdvf" opacity="1" fill-opacity="0" stroke="#000000" stroke-width="1" stroke-opacity="0"></use></g></g><g><use xlink:href="#c8HplEn8L" opacity="1" fill="#b1b1b1" fill-opacity="1"></use><g><use xlink:href="#c8HplEn8L" opacity="1" fill-opacity="0" stroke="#000000" stroke-width="1" stroke-opacity="0"></use></g></g><g><use xlink:href="#a2sYmkyNIn" opacity="1" fill="#000000" fill-opacity="0"></use><g><use xlink:href="#a2sYmkyNIn" opacity="1" fill-opacity="0" stroke="#000000" stroke-width="1" stroke-opacity="0"></use></g></g><g><use xlink:href="#d1OpfdJcFJ" opacity="1" fill="#000000" fill-opacity="0"></use><g><use xlink:href="#d1OpfdJcFJ" opacity="1" fill-opacity="0" stroke="#000000" stroke-width="1" stroke-opacity="0"></use></g></g><g><use xlink:href="#a2o9NfQ1A1" opacity="1" fill="#000000" fill-opacity="0"></use><g><use xlink:href="#a2o9NfQ1A1" opacity="1" fill-opacity="0" stroke="#000000" stroke-width="1" stroke-opacity="0"></use></g></g><g><use xlink:href="#a107xcQHPC" opacity="1" fill="#000000" fill-opacity="0"></use><g><use xlink:href="#a107xcQHPC" opacity="1" fill-opacity="0" stroke="#000000" stroke-width="1" stroke-opacity="0"></use></g></g><g><use xlink:href="#c6gLPheXY" opacity="1" fill="#000000" fill-opacity="0"></use><g><use xlink:href="#c6gLPheXY" opacity="1" fill-opacity="0" stroke="#000000" stroke-width="1" stroke-opacity="0"></use></g></g><g><use xlink:href="#b2bw5mpO6V" opacity="1" fill="#b1b1b1" fill-opacity="1"></use><g><use xlink:href="#b2bw5mpO6V" opacity="1" fill-opacity="0" stroke="#000000" stroke-width="1" stroke-opacity="0"></use></g></g><g><use xlink:href="#aexWsrFVL" opacity="1" fill="#000000" fill-opacity="0"></use><g><use xlink:href="#aexWsrFVL" opacity="1" fill-opacity="0" stroke="#000000" stroke-width="1" stroke-opacity="0"></use></g></g><g><use xlink:href="#a1Nw7QfPO7" opacity="1" fill="#b1b1b1" fill-opacity="1"></use><g><use xlink:href="#a1Nw7QfPO7" opacity="1" fill-opacity="0" stroke="#000000" stroke-width="1" stroke-opacity="0"></use></g></g><g><use xlink:href="#b2a4zBhv1Q" opacity="1" fill="#b1b1b1" fill-opacity="1"></use><g><use xlink:href="#b2a4zBhv1Q" opacity="1" fill-opacity="0" stroke="#000000" stroke-width="1" stroke-opacity="0"></use></g></g><g><use xlink:href="#b275ggGLQ9" opacity="1" fill="#f8ff73" fill-opacity="1"></use><g><use xlink:href="#b275ggGLQ9" opacity="1" fill-opacity="0" stroke="#000000" stroke-width="1" stroke-opacity="0"></use></g></g><g><use xlink:href="#a30vFzmINZ" opacity="1" fill="#f8ff73" fill-opacity="1"></use><g><use xlink:href="#a30vFzmINZ" opacity="1" fill-opacity="0" stroke="#000000" stroke-width="1" stroke-opacity="0"></use></g></g></g></svg>