<?xml version="1.0" encoding="UTF-8" standalone="no"?>
<!DOCTYPE svg PUBLIC "-//W3C//DTD SVG 1.1//EN" "http://www.w3.org/Graphics/SVG/1.1/DTD/svg11.dtd">
<svg version="1.1" xmlns="http://www.w3.org/2000/svg" xmlns:xlink="http://www.w3.org/1999/xlink" preserveAspectRatio="xMidYMid meet" viewBox="-1 -1 404 84" width="200" height="40"><defs><path d="M80 50.92C80 51.24 80 51.49 80 51.49C80 51.49 80 51.24 80 50.92C80 50.6 80 50.34 80 50.34C80 50.46 80 50.6 80 50.92Z" id="a4FTAcbtk"></path><path d="M80 40C80 62.08 62.08 80 40 80C17.92 80 0 62.08 0 40C0 17.92 17.92 0 40 0C62.08 0 80 17.92 80 40Z" id="b4qsmaffs"></path><path d="M240 40C240 62.08 222.08 80 200 80C177.92 80 160 62.08 160 40C160 17.92 177.92 0 200 0C222.08 0 240 17.92 240 40Z" id="fqlA2AnSG"></path><path d="M320 40C320 62.08 302.08 80 280 80C257.92 80 240 62.08 240 40C240 17.92 257.92 0 280 0C302.08 0 320 17.92 320 40Z" id="auLkuxxAv"></path><path d="M400 40C400 62.08 382.08 80 360 80C337.92 80 320 62.08 320 40C320 17.92 337.92 0 360 0C382.08 0 400 17.92 400 40Z" id="awQEaUlEB"></path><path d="M160 40C160 62.08 142.08 80 120 80C97.92 80 80 62.08 80 40C80 17.92 97.92 0 120 0C142.08 0 160 17.92 160 40Z" id="c2haBOh5EJ"></path></defs><g><g><use xlink:href="#a4FTAcbtk" opacity="1" fill="#e1e61b" fill-opacity="1"></use></g><g><use xlink:href="#b4qsmaffs" opacity="1" fill="#d19900" fill-opacity="1"></use></g><g><use xlink:href="#fqlA2AnSG" opacity="1" fill="#b6b6b6" fill-opacity="1"></use></g><g><use xlink:href="#auLkuxxAv" opacity="1" fill="#b6b6b6" fill-opacity="1"></use></g><g><use xlink:href="#awQEaUlEB" opacity="1" fill="#b6b6b6" fill-opacity="1"></use></g><g><use xlink:href="#c2haBOh5EJ" opacity="1" fill="#d19900" fill-opacity="1"></use></g></g></svg>