<?xml version="1.0" encoding="UTF-8" standalone="no"?>
<!DOCTYPE svg PUBLIC "-//W3C//DTD SVG 1.1//EN" "http://www.w3.org/Graphics/SVG/1.1/DTD/svg11.dtd">
<svg version="1.1" xmlns="http://www.w3.org/2000/svg" xmlns:xlink="http://www.w3.org/1999/xlink" preserveAspectRatio="xMidYMid meet" viewBox="2.2273841349998804 -1 644 130.3904631546718" width="200" height="39.5"><defs><path d="M323.41 2.2C358.73 2.3 387.33 30.19 387.23 64.45C387.13 98.71 358.37 126.46 323.05 126.36C287.73 126.25 259.13 98.36 259.23 64.1C259.33 29.84 288.09 2.11 323.41 2.2Z" id="bA3dx3MX"></path><path d="M323.41 2.2C358.73 2.3 387.33 30.19 387.23 64.45C387.13 98.71 358.37 126.46 323.05 126.36C287.73 126.25 259.13 98.36 259.23 64.1C259.33 29.84 288.09 2.11 323.41 2.2Z" id="iyuLxgowK"></path><path d="M579.41 2.2C614.73 2.3 643.33 30.19 643.23 64.45C643.13 98.71 614.37 126.46 579.05 126.36C543.73 126.25 515.13 98.36 515.23 64.1C515.33 29.84 544.09 2.11 579.41 2.2Z" id="a2IfYAuW3j"></path><path d="M579.41 2.2C614.73 2.3 643.33 30.19 643.23 64.45C643.13 98.71 614.37 126.46 579.05 126.36C543.73 126.25 515.13 98.36 515.23 64.1C515.33 29.84 544.09 2.11 579.41 2.2Z" id="c12pv95r5d"></path><path d="M451.41 2.2C486.73 2.3 515.33 30.19 515.23 64.45C515.13 98.71 486.37 126.46 451.05 126.36C415.73 126.25 387.13 98.36 387.23 64.1C387.33 29.84 416.09 2.11 451.41 2.2Z" id="d3rvAANFB"></path><path d="M451.41 2.2C486.73 2.3 515.33 30.19 515.23 64.45C515.13 98.71 486.37 126.46 451.05 126.36C415.73 126.25 387.13 98.36 387.23 64.1C387.33 29.84 416.09 2.11 451.41 2.2Z" id="fvFysY63O"></path><path d="M323.41 2.2C358.73 2.3 387.33 30.19 387.23 64.45C387.13 98.71 358.37 126.46 323.05 126.36C287.73 126.25 259.13 98.36 259.23 64.1C259.33 29.84 288.09 2.11 323.41 2.2Z" id="a8ZyPpz1p"></path><path d="M323.41 2.2C358.73 2.3 387.33 30.19 387.23 64.45C387.13 98.71 358.37 126.46 323.05 126.36C287.73 126.25 259.13 98.36 259.23 64.1C259.33 29.84 288.09 2.11 323.41 2.2Z" id="d4wwDjKYtS"></path><path d="M451.41 2.2C486.73 2.3 515.33 30.19 515.23 64.45C515.13 98.71 486.37 126.46 451.05 126.36C415.73 126.25 387.13 98.36 387.23 64.1C387.33 29.84 416.09 2.11 451.41 2.2Z" id="b32K8z2SO"></path><path d="M451.41 2.2C486.73 2.3 515.33 30.19 515.23 64.45C515.13 98.71 486.37 126.46 451.05 126.36C415.73 126.25 387.13 98.36 387.23 64.1C387.33 29.84 416.09 2.11 451.41 2.2Z" id="n95WKxZB7"></path><path d="M195.23 2.2C230.55 2.2 259.23 30.02 259.23 64.28C259.23 98.54 230.55 126.37 195.23 126.37C159.91 126.37 131.23 98.54 131.23 64.28C131.23 30.02 159.91 2.2 195.23 2.2Z" id="aQrSdVH5L"></path><path d="M195.23 2.2C230.55 2.2 259.23 30.02 259.23 64.28C259.23 98.54 230.55 126.37 195.23 126.37C159.91 126.37 131.23 98.54 131.23 64.28C131.23 30.02 159.91 2.2 195.23 2.2Z" id="e2l2XnS7CN"></path><path d="M67.23 0C102.55 0 131.23 27.82 131.23 62.08C131.23 96.34 102.55 124.17 67.23 124.17C31.91 124.17 3.23 96.34 3.23 62.08C3.23 27.82 31.91 0 67.23 0Z" id="b1aaHv24VA"></path><path d="M328.63 2.44L328.63 126.17L328.47 126.18L325.86 126.34L323.23 126.39L320.59 126.34L317.98 126.18L315.4 125.93L312.85 125.58L310.34 125.13L307.86 124.58L305.41 123.95L303.01 123.22L300.65 122.41L298.33 121.51L296.05 120.52L293.83 119.45L291.65 118.31L289.53 117.08L287.46 115.78L285.44 114.4L283.48 112.95L281.59 111.43L279.75 109.85L277.98 108.19L276.28 106.48L274.64 104.7L273.08 102.85L271.58 100.96L270.16 99L268.82 96.99L267.56 94.93L266.38 92.82L265.28 90.66L264.26 88.46L263.33 86.21L262.49 83.91L261.74 81.58L261.09 79.21L260.53 76.8L260.07 74.36L259.7 71.89L259.44 69.39L259.28 66.86L259.23 64.3L259.28 61.74L259.44 59.21L259.7 56.71L260.07 54.24L260.53 51.8L261.09 49.39L261.74 47.02L262.49 44.69L263.33 42.4L264.26 40.15L265.28 37.94L266.38 35.78L267.56 33.67L268.82 31.61L270.16 29.6L271.58 27.65L273.08 25.75L274.64 23.91L276.28 22.13L277.98 20.41L279.75 18.76L281.59 17.17L283.48 15.65L285.44 14.21L287.46 12.83L289.53 11.53L291.65 10.3L293.83 9.15L296.05 8.09L298.33 7.1L300.65 6.2L303.01 5.39L305.41 4.66L307.86 4.03L310.34 3.48L312.85 3.03L315.4 2.68L317.98 2.43L320.59 2.27L323.23 2.22L325.86 2.27L328.47 2.43L328.47 2.43L328.63 2.44Z" id="a2LoU1mj99"></path></defs><g><g><use xlink:href="#bA3dx3MX" opacity="1" fill="#b1b1b1" fill-opacity="1"></use><g><use xlink:href="#bA3dx3MX" opacity="1" fill-opacity="0" stroke="#000000" stroke-width="1" stroke-opacity="0"></use></g></g><g><use xlink:href="#iyuLxgowK" opacity="1" fill="#000000" fill-opacity="0"></use><g><use xlink:href="#iyuLxgowK" opacity="1" fill-opacity="0" stroke="#000000" stroke-width="1" stroke-opacity="0"></use></g></g><g><use xlink:href="#a2IfYAuW3j" opacity="1" fill="#b1b1b1" fill-opacity="1"></use><g><use xlink:href="#a2IfYAuW3j" opacity="1" fill-opacity="0" stroke="#000000" stroke-width="1" stroke-opacity="0"></use></g></g><g><use xlink:href="#c12pv95r5d" opacity="1" fill="#000000" fill-opacity="0"></use><g><use xlink:href="#c12pv95r5d" opacity="1" fill-opacity="0" stroke="#000000" stroke-width="1" stroke-opacity="0"></use></g></g><g><use xlink:href="#d3rvAANFB" opacity="1" fill="#000000" fill-opacity="0"></use><g><use xlink:href="#d3rvAANFB" opacity="1" fill-opacity="0" stroke="#000000" stroke-width="1" stroke-opacity="0"></use></g></g><g><use xlink:href="#fvFysY63O" opacity="1" fill="#000000" fill-opacity="0"></use><g><use xlink:href="#fvFysY63O" opacity="1" fill-opacity="0" stroke="#000000" stroke-width="1" stroke-opacity="0"></use></g></g><g><use xlink:href="#a8ZyPpz1p" opacity="1" fill="#000000" fill-opacity="0"></use><g><use xlink:href="#a8ZyPpz1p" opacity="1" fill-opacity="0" stroke="#000000" stroke-width="1" stroke-opacity="0"></use></g></g><g><use xlink:href="#d4wwDjKYtS" opacity="1" fill="#000000" fill-opacity="0"></use><g><use xlink:href="#d4wwDjKYtS" opacity="1" fill-opacity="0" stroke="#000000" stroke-width="1" stroke-opacity="0"></use></g></g><g><use xlink:href="#b32K8z2SO" opacity="1" fill="#b1b1b1" fill-opacity="1"></use><g><use xlink:href="#b32K8z2SO" opacity="1" fill-opacity="0" stroke="#000000" stroke-width="1" stroke-opacity="0"></use></g></g><g><use xlink:href="#n95WKxZB7" opacity="1" fill="#000000" fill-opacity="0"></use><g><use xlink:href="#n95WKxZB7" opacity="1" fill-opacity="0" stroke="#000000" stroke-width="1" stroke-opacity="0"></use></g></g><g><use xlink:href="#aQrSdVH5L" opacity="1" fill="#b1b1b1" fill-opacity="1"></use><g><use xlink:href="#aQrSdVH5L" opacity="1" fill-opacity="0" stroke="#000000" stroke-width="1" stroke-opacity="0"></use></g></g><g><use xlink:href="#e2l2XnS7CN" opacity="1" fill="#f8ff73" fill-opacity="1"></use><g><use xlink:href="#e2l2XnS7CN" opacity="1" fill-opacity="0" stroke="#000000" stroke-width="1" stroke-opacity="0"></use></g></g><g><use xlink:href="#b1aaHv24VA" opacity="1" fill="#f8ff73" fill-opacity="1"></use><g><use xlink:href="#b1aaHv24VA" opacity="1" fill-opacity="0" stroke="#000000" stroke-width="1" stroke-opacity="0"></use></g></g><g><use xlink:href="#a2LoU1mj99" opacity="1" fill="#f8ff73" fill-opacity="1"></use><g><use xlink:href="#a2LoU1mj99" opacity="1" fill-opacity="0" stroke="#000000" stroke-width="1" stroke-opacity="0"></use></g></g></g></svg>