<?xml version="1.0" encoding="UTF-8" standalone="no"?>
<!DOCTYPE svg PUBLIC "-//W3C//DTD SVG 1.1//EN" "http://www.w3.org/Graphics/SVG/1.1/DTD/svg11.dtd">
<svg version="1.1" xmlns="http://www.w3.org/2000/svg" xmlns:xlink="http://www.w3.org/1999/xlink" preserveAspectRatio="xMidYMid meet" viewBox="2.2273841349998804 -1 644 131.39046315467183" width="200" height="39.81"><defs><path d="M323.41 2.2C358.73 2.3 387.33 30.19 387.23 64.45C387.13 98.71 358.37 126.46 323.05 126.36C287.73 126.25 259.13 98.36 259.23 64.1C259.33 29.84 288.09 2.11 323.41 2.2Z" id="b2yMhkBS1R"></path><path d="M323.41 2.2C358.73 2.3 387.33 30.19 387.23 64.45C387.13 98.71 358.37 126.46 323.05 126.36C287.73 126.25 259.13 98.36 259.23 64.1C259.33 29.84 288.09 2.11 323.41 2.2Z" id="c1UoifYaAK"></path><path d="M579.41 2.2C614.73 2.3 643.33 30.19 643.23 64.45C643.13 98.71 614.37 126.46 579.05 126.36C543.73 126.25 515.13 98.36 515.23 64.1C515.33 29.84 544.09 2.11 579.41 2.2Z" id="a53thi0Og"></path><path d="M579.41 2.2C614.73 2.3 643.33 30.19 643.23 64.45C643.13 98.71 614.37 126.46 579.05 126.36C543.73 126.25 515.13 98.36 515.23 64.1C515.33 29.84 544.09 2.11 579.41 2.2Z" id="ajNlBaSh6"></path><path d="M451.41 2.2C486.73 2.3 515.33 30.19 515.23 64.45C515.13 98.71 486.37 126.46 451.05 126.36C415.73 126.25 387.13 98.36 387.23 64.1C387.33 29.84 416.09 2.11 451.41 2.2Z" id="a1cEJShkiD"></path><path d="M451.41 2.2C486.73 2.3 515.33 30.19 515.23 64.45C515.13 98.71 486.37 126.46 451.05 126.36C415.73 126.25 387.13 98.36 387.23 64.1C387.33 29.84 416.09 2.11 451.41 2.2Z" id="bfGoI9w7A"></path><path d="M323.41 2.2C358.73 2.3 387.33 30.19 387.23 64.45C387.13 98.71 358.37 126.46 323.05 126.36C287.73 126.25 259.13 98.36 259.23 64.1C259.33 29.84 288.09 2.11 323.41 2.2Z" id="aNVGztSeK"></path><path d="M323.41 2.2C358.73 2.3 387.33 30.19 387.23 64.45C387.13 98.71 358.37 126.46 323.05 126.36C287.73 126.25 259.13 98.36 259.23 64.1C259.33 29.84 288.09 2.11 323.41 2.2Z" id="a3ys0eLYMm"></path><path d="M451.41 2.2C486.73 2.3 515.33 30.19 515.23 64.45C515.13 98.71 486.37 126.46 451.05 126.36C415.73 126.25 387.13 98.36 387.23 64.1C387.33 29.84 416.09 2.11 451.41 2.2Z" id="k8O54pk2qb"></path><path d="M451.41 2.2C486.73 2.3 515.33 30.19 515.23 64.45C515.13 98.71 486.37 126.46 451.05 126.36C415.73 126.25 387.13 98.36 387.23 64.1C387.33 29.84 416.09 2.11 451.41 2.2Z" id="d18pKwCk5W"></path><path d="M195.23 2.2C230.55 2.2 259.23 30.02 259.23 64.28C259.23 98.54 230.55 126.37 195.23 126.37C159.91 126.37 131.23 98.54 131.23 64.28C131.23 30.02 159.91 2.2 195.23 2.2Z" id="eueOuwule"></path><path d="M195.23 2.2C230.55 2.2 259.23 30.02 259.23 64.28C259.23 98.54 230.55 126.37 195.23 126.37C159.91 126.37 131.23 98.54 131.23 64.28C131.23 30.02 159.91 2.2 195.23 2.2Z" id="g1guyx3ZNc"></path><path d="M67.23 0C102.55 0 131.23 27.82 131.23 62.08C131.23 96.34 102.55 124.17 67.23 124.17C31.91 124.17 3.23 96.34 3.23 62.08C3.23 27.82 31.91 0 67.23 0Z" id="a2e6YXXucB"></path><path d="M50.11 89.96C60.76 89.96 69.4 98.34 69.4 108.67C69.4 119 60.76 127.39 50.11 127.39C39.46 127.39 30.81 119 30.81 108.67C30.81 98.34 39.46 89.96 50.11 89.96Z" id="e22xQGsrd"></path><path d="M456.13 2.59L456.13 126.32L455.97 126.33L453.36 126.49L450.73 126.54L448.09 126.49L445.48 126.33L442.9 126.08L440.35 125.73L437.84 125.28L435.36 124.73L432.91 124.1L430.51 123.37L428.15 122.56L425.83 121.66L423.55 120.67L421.33 119.6L419.15 118.46L417.03 117.23L414.96 115.93L412.94 114.55L410.98 113.1L409.09 111.58L407.25 110L405.48 108.34L403.78 106.62L402.14 104.84L400.58 103L399.08 101.11L397.66 99.15L396.32 97.14L395.06 95.08L393.88 92.97L392.78 90.81L391.76 88.6L390.83 86.35L389.99 84.06L389.24 81.73L388.59 79.36L388.03 76.95L387.57 74.51L387.2 72.04L386.94 69.54L386.78 67.01L386.73 64.45L386.78 61.89L386.94 59.36L387.2 56.86L387.57 54.39L388.03 51.95L388.59 49.54L389.24 47.17L389.99 44.84L390.83 42.55L391.76 40.3L392.78 38.09L393.88 35.93L395.06 33.82L396.32 31.76L397.66 29.75L399.08 27.8L400.58 25.9L402.14 24.06L403.78 22.28L405.48 20.56L407.25 18.91L409.09 17.32L410.98 15.8L412.94 14.35L414.96 12.98L417.03 11.68L419.15 10.45L421.33 9.3L423.55 8.24L425.83 7.25L428.15 6.35L430.51 5.54L432.91 4.81L435.36 4.17L437.84 3.63L440.35 3.18L442.9 2.83L445.48 2.58L448.09 2.42L450.73 2.37L453.36 2.42L455.97 2.58L455.97 2.58L456.13 2.59Z" id="d43qJZsWed"></path></defs><g><g><use xlink:href="#b2yMhkBS1R" opacity="1" fill="#b1b1b1" fill-opacity="1"></use><g><use xlink:href="#b2yMhkBS1R" opacity="1" fill-opacity="0" stroke="#000000" stroke-width="1" stroke-opacity="0"></use></g></g><g><use xlink:href="#c1UoifYaAK" opacity="1" fill="#000000" fill-opacity="0"></use><g><use xlink:href="#c1UoifYaAK" opacity="1" fill-opacity="0" stroke="#000000" stroke-width="1" stroke-opacity="0"></use></g></g><g><use xlink:href="#a53thi0Og" opacity="1" fill="#b1b1b1" fill-opacity="1"></use><g><use xlink:href="#a53thi0Og" opacity="1" fill-opacity="0" stroke="#000000" stroke-width="1" stroke-opacity="0"></use></g></g><g><use xlink:href="#ajNlBaSh6" opacity="1" fill="#000000" fill-opacity="0"></use><g><use xlink:href="#ajNlBaSh6" opacity="1" fill-opacity="0" stroke="#000000" stroke-width="1" stroke-opacity="0"></use></g></g><g><use xlink:href="#a1cEJShkiD" opacity="1" fill="#000000" fill-opacity="0"></use><g><use xlink:href="#a1cEJShkiD" opacity="1" fill-opacity="0" stroke="#000000" stroke-width="1" stroke-opacity="0"></use></g></g><g><use xlink:href="#bfGoI9w7A" opacity="1" fill="#000000" fill-opacity="0"></use><g><use xlink:href="#bfGoI9w7A" opacity="1" fill-opacity="0" stroke="#000000" stroke-width="1" stroke-opacity="0"></use></g></g><g><use xlink:href="#aNVGztSeK" opacity="1" fill="#000000" fill-opacity="0"></use><g><use xlink:href="#aNVGztSeK" opacity="1" fill-opacity="0" stroke="#000000" stroke-width="1" stroke-opacity="0"></use></g></g><g><use xlink:href="#a3ys0eLYMm" opacity="1" fill="#f8ff73" fill-opacity="1"></use><g><use xlink:href="#a3ys0eLYMm" opacity="1" fill-opacity="0" stroke="#000000" stroke-width="1" stroke-opacity="0"></use></g></g><g><use xlink:href="#k8O54pk2qb" opacity="1" fill="#b1b1b1" fill-opacity="1"></use><g><use xlink:href="#k8O54pk2qb" opacity="1" fill-opacity="0" stroke="#000000" stroke-width="1" stroke-opacity="0"></use></g></g><g><use xlink:href="#d18pKwCk5W" opacity="1" fill="#000000" fill-opacity="0"></use><g><use xlink:href="#d18pKwCk5W" opacity="1" fill-opacity="0" stroke="#000000" stroke-width="1" stroke-opacity="0"></use></g></g><g><use xlink:href="#eueOuwule" opacity="1" fill="#b1b1b1" fill-opacity="1"></use><g><use xlink:href="#eueOuwule" opacity="1" fill-opacity="0" stroke="#000000" stroke-width="1" stroke-opacity="0"></use></g></g><g><use xlink:href="#g1guyx3ZNc" opacity="1" fill="#f8ff73" fill-opacity="1"></use><g><use xlink:href="#g1guyx3ZNc" opacity="1" fill-opacity="0" stroke="#000000" stroke-width="1" stroke-opacity="0"></use></g></g><g><use xlink:href="#a2e6YXXucB" opacity="1" fill="#f8ff73" fill-opacity="1"></use><g><use xlink:href="#a2e6YXXucB" opacity="1" fill-opacity="0" stroke="#000000" stroke-width="1" stroke-opacity="0"></use></g></g><g><use xlink:href="#e22xQGsrd" opacity="1" fill="#000000" fill-opacity="0"></use><g><use xlink:href="#e22xQGsrd" opacity="1" fill-opacity="0" stroke="#000000" stroke-width="1" stroke-opacity="0"></use></g></g><g><use xlink:href="#d43qJZsWed" opacity="1" fill="#f8ff73" fill-opacity="1"></use><g><use xlink:href="#d43qJZsWed" opacity="1" fill-opacity="0" stroke="#000000" stroke-width="1" stroke-opacity="0"></use></g></g></g></svg>