<?xml version="1.0" encoding="UTF-8" standalone="no"?>
<!DOCTYPE svg PUBLIC "-//W3C//DTD SVG 1.1//EN" "http://www.w3.org/Graphics/SVG/1.1/DTD/svg11.dtd">
<svg version="1.1" xmlns="http://www.w3.org/2000/svg" xmlns:xlink="http://www.w3.org/1999/xlink" preserveAspectRatio="xMidYMid meet" viewBox="2.2273841349998804 -1 644 130.37" width="200" height="39.49"><defs><path d="M323.41 2.2C358.73 2.3 387.33 30.19 387.23 64.45C387.13 98.71 358.37 126.46 323.05 126.36C287.73 126.25 259.13 98.36 259.23 64.1C259.33 29.84 288.09 2.11 323.41 2.2Z" id="a1q5vP8JQI"></path><path d="M323.41 2.2C358.73 2.3 387.33 30.19 387.23 64.45C387.13 98.71 358.37 126.46 323.05 126.36C287.73 126.25 259.13 98.36 259.23 64.1C259.33 29.84 288.09 2.11 323.41 2.2Z" id="c7qzZxCmmU"></path><path d="M579.41 2.2C614.73 2.3 643.33 30.19 643.23 64.45C643.13 98.71 614.37 126.46 579.05 126.36C543.73 126.25 515.13 98.36 515.23 64.1C515.33 29.84 544.09 2.11 579.41 2.2Z" id="aRSQo0mnb"></path><path d="M579.41 2.2C614.73 2.3 643.33 30.19 643.23 64.45C643.13 98.71 614.37 126.46 579.05 126.36C543.73 126.25 515.13 98.36 515.23 64.1C515.33 29.84 544.09 2.11 579.41 2.2Z" id="aa7R9oowFU"></path><path d="M451.41 2.2C486.73 2.3 515.33 30.19 515.23 64.45C515.13 98.71 486.37 126.46 451.05 126.36C415.73 126.25 387.13 98.36 387.23 64.1C387.33 29.84 416.09 2.11 451.41 2.2Z" id="bG1oPlnpo"></path><path d="M451.41 2.2C486.73 2.3 515.33 30.19 515.23 64.45C515.13 98.71 486.37 126.46 451.05 126.36C415.73 126.25 387.13 98.36 387.23 64.1C387.33 29.84 416.09 2.11 451.41 2.2Z" id="i1JkMCkomY"></path><path d="M323.41 2.2C358.73 2.3 387.33 30.19 387.23 64.45C387.13 98.71 358.37 126.46 323.05 126.36C287.73 126.25 259.13 98.36 259.23 64.1C259.33 29.84 288.09 2.11 323.41 2.2Z" id="kdaWVW5d"></path><path d="M323.41 2.2C358.73 2.3 387.33 30.19 387.23 64.45C387.13 98.71 358.37 126.46 323.05 126.36C287.73 126.25 259.13 98.36 259.23 64.1C259.33 29.84 288.09 2.11 323.41 2.2Z" id="b1bab3AWMI"></path><path d="M451.41 2.2C486.73 2.3 515.33 30.19 515.23 64.45C515.13 98.71 486.37 126.46 451.05 126.36C415.73 126.25 387.13 98.36 387.23 64.1C387.33 29.84 416.09 2.11 451.41 2.2Z" id="e19vloTORZ"></path><path d="M451.41 2.2C486.73 2.3 515.33 30.19 515.23 64.45C515.13 98.71 486.37 126.46 451.05 126.36C415.73 126.25 387.13 98.36 387.23 64.1C387.33 29.84 416.09 2.11 451.41 2.2Z" id="i1b3vWXI3M"></path><path d="M195.23 2.2C230.55 2.2 259.23 30.02 259.23 64.28C259.23 98.54 230.55 126.37 195.23 126.37C159.91 126.37 131.23 98.54 131.23 64.28C131.23 30.02 159.91 2.2 195.23 2.2Z" id="aridjGjP4"></path><path d="M195.23 2.2C230.55 2.2 259.23 30.02 259.23 64.28C259.23 98.54 230.55 126.37 195.23 126.37C159.91 126.37 131.23 98.54 131.23 64.28C131.23 30.02 159.91 2.2 195.23 2.2Z" id="c2htaZCCip"></path><path d="M67.23 0C102.55 0 131.23 27.82 131.23 62.08C131.23 96.34 102.55 124.17 67.23 124.17C31.91 124.17 3.23 96.34 3.23 62.08C3.23 27.82 31.91 0 67.23 0Z" id="d4fHiIAzMd"></path></defs><g><g><use xlink:href="#a1q5vP8JQI" opacity="1" fill="#b1b1b1" fill-opacity="1"></use><g><use xlink:href="#a1q5vP8JQI" opacity="1" fill-opacity="0" stroke="#000000" stroke-width="1" stroke-opacity="0"></use></g></g><g><use xlink:href="#c7qzZxCmmU" opacity="1" fill="#000000" fill-opacity="0"></use><g><use xlink:href="#c7qzZxCmmU" opacity="1" fill-opacity="0" stroke="#000000" stroke-width="1" stroke-opacity="0"></use></g></g><g><use xlink:href="#aRSQo0mnb" opacity="1" fill="#b1b1b1" fill-opacity="1"></use><g><use xlink:href="#aRSQo0mnb" opacity="1" fill-opacity="0" stroke="#000000" stroke-width="1" stroke-opacity="0"></use></g></g><g><use xlink:href="#aa7R9oowFU" opacity="1" fill="#000000" fill-opacity="0"></use><g><use xlink:href="#aa7R9oowFU" opacity="1" fill-opacity="0" stroke="#000000" stroke-width="1" stroke-opacity="0"></use></g></g><g><use xlink:href="#bG1oPlnpo" opacity="1" fill="#000000" fill-opacity="0"></use><g><use xlink:href="#bG1oPlnpo" opacity="1" fill-opacity="0" stroke="#000000" stroke-width="1" stroke-opacity="0"></use></g></g><g><use xlink:href="#i1JkMCkomY" opacity="1" fill="#000000" fill-opacity="0"></use><g><use xlink:href="#i1JkMCkomY" opacity="1" fill-opacity="0" stroke="#000000" stroke-width="1" stroke-opacity="0"></use></g></g><g><use xlink:href="#kdaWVW5d" opacity="1" fill="#000000" fill-opacity="0"></use><g><use xlink:href="#kdaWVW5d" opacity="1" fill-opacity="0" stroke="#000000" stroke-width="1" stroke-opacity="0"></use></g></g><g><use xlink:href="#b1bab3AWMI" opacity="1" fill="#f8ff73" fill-opacity="1"></use><g><use xlink:href="#b1bab3AWMI" opacity="1" fill-opacity="0" stroke="#000000" stroke-width="1" stroke-opacity="0"></use></g></g><g><use xlink:href="#e19vloTORZ" opacity="1" fill="#b1b1b1" fill-opacity="1"></use><g><use xlink:href="#e19vloTORZ" opacity="1" fill-opacity="0" stroke="#000000" stroke-width="1" stroke-opacity="0"></use></g></g><g><use xlink:href="#i1b3vWXI3M" opacity="1" fill="#f8ff73" fill-opacity="1"></use><g><use xlink:href="#i1b3vWXI3M" opacity="1" fill-opacity="0" stroke="#000000" stroke-width="1" stroke-opacity="0"></use></g></g><g><use xlink:href="#aridjGjP4" opacity="1" fill="#b1b1b1" fill-opacity="1"></use><g><use xlink:href="#aridjGjP4" opacity="1" fill-opacity="0" stroke="#000000" stroke-width="1" stroke-opacity="0"></use></g></g><g><use xlink:href="#c2htaZCCip" opacity="1" fill="#f8ff73" fill-opacity="1"></use><g><use xlink:href="#c2htaZCCip" opacity="1" fill-opacity="0" stroke="#000000" stroke-width="1" stroke-opacity="0"></use></g></g><g><use xlink:href="#d4fHiIAzMd" opacity="1" fill="#f8ff73" fill-opacity="1"></use><g><use xlink:href="#d4fHiIAzMd" opacity="1" fill-opacity="0" stroke="#000000" stroke-width="1" stroke-opacity="0"></use></g></g></g></svg>