<?xml version="1.0" encoding="UTF-8" standalone="no"?>
<!DOCTYPE svg PUBLIC "-//W3C//DTD SVG 1.1//EN" "http://www.w3.org/Graphics/SVG/1.1/DTD/svg11.dtd">
<svg version="1.1" xmlns="http://www.w3.org/2000/svg" xmlns:xlink="http://www.w3.org/1999/xlink" preserveAspectRatio="xMidYMid meet" viewBox="2.2273841349998804 -1 644 131.39046315467183" width="200" height="39.81"><defs><path d="M323.41 2.2C358.73 2.3 387.33 30.19 387.23 64.45C387.13 98.71 358.37 126.46 323.05 126.36C287.73 126.25 259.13 98.36 259.23 64.1C259.33 29.84 288.09 2.11 323.41 2.2Z" id="a1q5vP8JQI"></path><path d="M323.41 2.2C358.73 2.3 387.33 30.19 387.23 64.45C387.13 98.71 358.37 126.46 323.05 126.36C287.73 126.25 259.13 98.36 259.23 64.1C259.33 29.84 288.09 2.11 323.41 2.2Z" id="c7qzZxCmmU"></path><path d="M579.41 2.2C614.73 2.3 643.33 30.19 643.23 64.45C643.13 98.71 614.37 126.46 579.05 126.36C543.73 126.25 515.13 98.36 515.23 64.1C515.33 29.84 544.09 2.11 579.41 2.2Z" id="aRSQo0mnb"></path><path d="M579.41 2.2C614.73 2.3 643.33 30.19 643.23 64.45C643.13 98.71 614.37 126.46 579.05 126.36C543.73 126.25 515.13 98.36 515.23 64.1C515.33 29.84 544.09 2.11 579.41 2.2Z" id="aa7R9oowFU"></path><path d="M451.41 2.2C486.73 2.3 515.33 30.19 515.23 64.45C515.13 98.71 486.37 126.46 451.05 126.36C415.73 126.25 387.13 98.36 387.23 64.1C387.33 29.84 416.09 2.11 451.41 2.2Z" id="bG1oPlnpo"></path><path d="M451.41 2.2C486.73 2.3 515.33 30.19 515.23 64.45C515.13 98.71 486.37 126.46 451.05 126.36C415.73 126.25 387.13 98.36 387.23 64.1C387.33 29.84 416.09 2.11 451.41 2.2Z" id="i1JkMCkomY"></path><path d="M323.41 2.2C358.73 2.3 387.33 30.19 387.23 64.45C387.13 98.71 358.37 126.46 323.05 126.36C287.73 126.25 259.13 98.36 259.23 64.1C259.33 29.84 288.09 2.11 323.41 2.2Z" id="kdaWVW5d"></path><path d="M323.41 2.2C358.73 2.3 387.33 30.19 387.23 64.45C387.13 98.71 358.37 126.46 323.05 126.36C287.73 126.25 259.13 98.36 259.23 64.1C259.33 29.84 288.09 2.11 323.41 2.2Z" id="b1bab3AWMI"></path><path d="M451.41 2.2C486.73 2.3 515.33 30.19 515.23 64.45C515.13 98.71 486.37 126.46 451.05 126.36C415.73 126.25 387.13 98.36 387.23 64.1C387.33 29.84 416.09 2.11 451.41 2.2Z" id="e19vloTORZ"></path><path d="M451.41 2.2C486.73 2.3 515.33 30.19 515.23 64.45C515.13 98.71 486.37 126.46 451.05 126.36C415.73 126.25 387.13 98.36 387.23 64.1C387.33 29.84 416.09 2.11 451.41 2.2Z" id="i1b3vWXI3M"></path><path d="M195.23 2.2C230.55 2.2 259.23 30.02 259.23 64.28C259.23 98.54 230.55 126.37 195.23 126.37C159.91 126.37 131.23 98.54 131.23 64.28C131.23 30.02 159.91 2.2 195.23 2.2Z" id="aridjGjP4"></path><path d="M195.23 2.2C230.55 2.2 259.23 30.02 259.23 64.28C259.23 98.54 230.55 126.37 195.23 126.37C159.91 126.37 131.23 98.54 131.23 64.28C131.23 30.02 159.91 2.2 195.23 2.2Z" id="c2htaZCCip"></path><path d="M67.23 0C102.55 0 131.23 27.82 131.23 62.08C131.23 96.34 102.55 124.17 67.23 124.17C31.91 124.17 3.23 96.34 3.23 62.08C3.23 27.82 31.91 0 67.23 0Z" id="d4fHiIAzMd"></path><path d="M50.11 89.96C60.76 89.96 69.4 98.34 69.4 108.67C69.4 119 60.76 127.39 50.11 127.39C39.46 127.39 30.81 119 30.81 108.67C30.81 98.34 39.46 89.96 50.11 89.96Z" id="acGBn2UQJ"></path><path d="M583.93 2.44L583.93 126.17L583.77 126.18L581.16 126.34L578.52 126.39L575.89 126.34L573.28 126.18L570.7 125.93L568.15 125.58L565.63 125.13L563.15 124.58L560.71 123.95L558.31 123.22L555.94 122.41L553.62 121.51L551.35 120.52L549.12 119.45L546.95 118.31L544.82 117.08L542.75 115.78L540.74 114.4L538.78 112.95L536.88 111.43L535.05 109.85L533.28 108.19L531.58 106.48L529.94 104.7L528.37 102.85L526.88 100.96L525.46 99L524.12 96.99L522.86 94.93L521.67 92.82L520.57 90.66L519.56 88.46L518.63 86.21L517.79 83.91L517.04 81.58L516.39 79.21L515.83 76.8L515.36 74.36L515 71.89L514.74 69.39L514.58 66.86L514.52 64.3L514.58 61.74L514.74 59.21L515 56.71L515.36 54.24L515.83 51.8L516.39 49.39L517.04 47.02L517.79 44.69L518.63 42.4L519.56 40.15L520.57 37.94L521.67 35.78L522.86 33.67L524.12 31.61L525.46 29.6L526.88 27.65L528.37 25.75L529.94 23.91L531.58 22.13L533.28 20.41L535.05 18.76L536.88 17.17L538.78 15.65L540.74 14.21L542.75 12.83L544.82 11.53L546.95 10.3L549.12 9.15L551.35 8.09L553.62 7.1L555.94 6.2L558.31 5.39L560.71 4.66L563.15 4.03L565.63 3.48L568.15 3.03L570.7 2.68L573.28 2.43L575.89 2.27L578.52 2.22L581.16 2.27L583.77 2.43L583.77 2.43L583.93 2.44Z" id="a1mGJGvqnt"></path></defs><g><g><use xlink:href="#a1q5vP8JQI" opacity="1" fill="#b1b1b1" fill-opacity="1"></use><g><use xlink:href="#a1q5vP8JQI" opacity="1" fill-opacity="0" stroke="#000000" stroke-width="1" stroke-opacity="0"></use></g></g><g><use xlink:href="#c7qzZxCmmU" opacity="1" fill="#000000" fill-opacity="0"></use><g><use xlink:href="#c7qzZxCmmU" opacity="1" fill-opacity="0" stroke="#000000" stroke-width="1" stroke-opacity="0"></use></g></g><g><use xlink:href="#aRSQo0mnb" opacity="1" fill="#b1b1b1" fill-opacity="1"></use><g><use xlink:href="#aRSQo0mnb" opacity="1" fill-opacity="0" stroke="#000000" stroke-width="1" stroke-opacity="0"></use></g></g><g><use xlink:href="#aa7R9oowFU" opacity="1" fill="#000000" fill-opacity="0"></use><g><use xlink:href="#aa7R9oowFU" opacity="1" fill-opacity="0" stroke="#000000" stroke-width="1" stroke-opacity="0"></use></g></g><g><use xlink:href="#bG1oPlnpo" opacity="1" fill="#000000" fill-opacity="0"></use><g><use xlink:href="#bG1oPlnpo" opacity="1" fill-opacity="0" stroke="#000000" stroke-width="1" stroke-opacity="0"></use></g></g><g><use xlink:href="#i1JkMCkomY" opacity="1" fill="#000000" fill-opacity="0"></use><g><use xlink:href="#i1JkMCkomY" opacity="1" fill-opacity="0" stroke="#000000" stroke-width="1" stroke-opacity="0"></use></g></g><g><use xlink:href="#kdaWVW5d" opacity="1" fill="#000000" fill-opacity="0"></use><g><use xlink:href="#kdaWVW5d" opacity="1" fill-opacity="0" stroke="#000000" stroke-width="1" stroke-opacity="0"></use></g></g><g><use xlink:href="#b1bab3AWMI" opacity="1" fill="#f8ff73" fill-opacity="1"></use><g><use xlink:href="#b1bab3AWMI" opacity="1" fill-opacity="0" stroke="#000000" stroke-width="1" stroke-opacity="0"></use></g></g><g><use xlink:href="#e19vloTORZ" opacity="1" fill="#b1b1b1" fill-opacity="1"></use><g><use xlink:href="#e19vloTORZ" opacity="1" fill-opacity="0" stroke="#000000" stroke-width="1" stroke-opacity="0"></use></g></g><g><use xlink:href="#i1b3vWXI3M" opacity="1" fill="#f8ff73" fill-opacity="1"></use><g><use xlink:href="#i1b3vWXI3M" opacity="1" fill-opacity="0" stroke="#000000" stroke-width="1" stroke-opacity="0"></use></g></g><g><use xlink:href="#aridjGjP4" opacity="1" fill="#b1b1b1" fill-opacity="1"></use><g><use xlink:href="#aridjGjP4" opacity="1" fill-opacity="0" stroke="#000000" stroke-width="1" stroke-opacity="0"></use></g></g><g><use xlink:href="#c2htaZCCip" opacity="1" fill="#f8ff73" fill-opacity="1"></use><g><use xlink:href="#c2htaZCCip" opacity="1" fill-opacity="0" stroke="#000000" stroke-width="1" stroke-opacity="0"></use></g></g><g><use xlink:href="#d4fHiIAzMd" opacity="1" fill="#f8ff73" fill-opacity="1"></use><g><use xlink:href="#d4fHiIAzMd" opacity="1" fill-opacity="0" stroke="#000000" stroke-width="1" stroke-opacity="0"></use></g></g><g><use xlink:href="#acGBn2UQJ" opacity="1" fill="#000000" fill-opacity="0"></use><g><use xlink:href="#acGBn2UQJ" opacity="1" fill-opacity="0" stroke="#000000" stroke-width="1" stroke-opacity="0"></use></g></g><g><use xlink:href="#a1mGJGvqnt" opacity="1" fill="#f8ff73" fill-opacity="1"></use><g><use xlink:href="#a1mGJGvqnt" opacity="1" fill-opacity="0" stroke="#000000" stroke-width="1" stroke-opacity="0"></use></g></g></g></svg>