<?xml version="1.0" encoding="UTF-8" standalone="no"?>
<!DOCTYPE svg PUBLIC "-//W3C//DTD SVG 1.1//EN" "http://www.w3.org/Graphics/SVG/1.1/DTD/svg11.dtd">
<svg version="1.1" xmlns="http://www.w3.org/2000/svg" xmlns:xlink="http://www.w3.org/1999/xlink" preserveAspectRatio="xMidYMid meet" viewBox="-1 0.19749487598704718 643.9999999999999 128.16761412824064" width="200" height="38.8"><defs><path d="M0 63.28C0 29.02 28.68 1.2 64 1.2C99.32 1.2 128 29.02 128 63.28C128 97.54 99.32 125.37 64 125.37C28.68 125.37 0 97.54 0 63.28Z" id="gbiwr8Pgf"></path><path d="M256 63.1C256.1 28.84 284.86 1.11 320.18 1.2C355.5 1.3 384.1 29.19 384 63.45C383.9 97.71 355.14 125.46 319.82 125.36C284.5 125.25 255.9 97.36 256 63.1Z" id="c7JyAzoZQ"></path><path d="M256 63.1C256.1 28.84 284.86 1.11 320.18 1.2C355.5 1.3 384.1 29.19 384 63.45C383.9 97.71 355.14 125.46 319.82 125.36C284.5 125.25 255.9 97.36 256 63.1Z" id="g3t2paQI0"></path><path d="M384 63.1C384.1 28.84 412.86 1.11 448.18 1.2C483.5 1.3 512.1 29.19 512 63.45C511.9 97.71 483.14 125.46 447.82 125.36C412.5 125.25 383.9 97.36 384 63.1Z" id="c1bvSKxqng"></path><path d="M384 63.1C384.1 28.84 412.86 1.11 448.18 1.2C483.5 1.3 512.1 29.19 512 63.45C511.9 97.71 483.14 125.46 447.82 125.36C412.5 125.25 383.9 97.36 384 63.1Z" id="cl4BvMgGA"></path><path d="M512 63.1C512.1 28.84 540.86 1.11 576.18 1.2C611.5 1.3 640.1 29.19 640 63.45C639.9 97.71 611.14 125.46 575.82 125.36C540.5 125.25 511.9 97.36 512 63.1Z" id="dHAEMtj5F"></path><path d="M128 63.28C128 29.02 156.68 1.2 192 1.2C227.32 1.2 256 29.02 256 63.28C256 97.54 227.32 125.37 192 125.37C156.68 125.37 128 97.54 128 63.28Z" id="aIF06xewZ"></path></defs><g><g><use xlink:href="#gbiwr8Pgf" opacity="1" fill="#b1b1b1" fill-opacity="1"></use><g><use xlink:href="#gbiwr8Pgf" opacity="1" fill-opacity="0" stroke="#000000" stroke-width="1" stroke-opacity="0"></use></g></g><g><use xlink:href="#c7JyAzoZQ" opacity="1" fill="#b1b1b1" fill-opacity="1"></use><g><use xlink:href="#c7JyAzoZQ" opacity="1" fill-opacity="0" stroke="#000000" stroke-width="1" stroke-opacity="0"></use></g></g><g><use xlink:href="#g3t2paQI0" opacity="1" fill="#000000" fill-opacity="0"></use><g><use xlink:href="#g3t2paQI0" opacity="1" fill-opacity="0" stroke="#000000" stroke-width="1" stroke-opacity="0"></use></g></g><g><use xlink:href="#c1bvSKxqng" opacity="1" fill="#b1b1b1" fill-opacity="1"></use><g><use xlink:href="#c1bvSKxqng" opacity="1" fill-opacity="0" stroke="#000000" stroke-width="1" stroke-opacity="0"></use></g></g><g><use xlink:href="#cl4BvMgGA" opacity="1" fill="#000000" fill-opacity="0"></use><g><use xlink:href="#cl4BvMgGA" opacity="1" fill-opacity="0" stroke="#000000" stroke-width="1" stroke-opacity="0"></use></g></g><g><use xlink:href="#dHAEMtj5F" opacity="1" fill="#b1b1b1" fill-opacity="1"></use><g><use xlink:href="#dHAEMtj5F" opacity="1" fill-opacity="0" stroke="#000000" stroke-width="1" stroke-opacity="0"></use></g></g><g><use xlink:href="#aIF06xewZ" opacity="1" fill="#b1b1b1" fill-opacity="1"></use><g><use xlink:href="#aIF06xewZ" opacity="1" fill-opacity="0" stroke="#000000" stroke-width="1" stroke-opacity="0"></use></g></g></g></svg>